<svg width="626" height="626" viewBox="0 0 626 626" fill="none" xmlns="http://www.w3.org/2000/svg">
<path opacity="0.2" d="M77.5805 515.359C78.6299 515.359 79.4777 514.507 79.4777 513.461C79.4777 512.415 78.6261 511.563 77.5805 511.563C76.5349 511.563 75.6833 512.411 75.6833 513.461C75.6833 514.511 76.5349 515.359 77.5805 515.359Z" fill="white" stroke="white" style="fill:white;fill-opacity:1;stroke:white;stroke-opacity:1;" stroke-width="3"/>
<path opacity="0.2" d="M65.2277 499.858C66.2771 499.858 67.1249 499.006 67.1249 497.96C67.1249 496.914 66.2733 496.062 65.2277 496.062C64.1822 496.062 63.3305 496.914 63.3305 497.96C63.3305 499.006 64.1822 499.858 65.2277 499.858Z" fill="white" stroke="white" style="fill:white;fill-opacity:1;stroke:white;stroke-opacity:1;" stroke-width="3"/>
<path opacity="0.2" d="M53.8901 483.596C54.9394 483.596 55.7873 482.748 55.7873 481.698C55.7873 480.648 54.9394 479.8 53.8901 479.8C52.8407 479.8 51.9929 480.648 51.9929 481.698C51.9929 482.748 52.8445 483.596 53.8901 483.596Z" fill="white" stroke="white" style="fill:white;fill-opacity:1;stroke:white;stroke-opacity:1;" stroke-width="3"/>
<path opacity="0.2" d="M43.617 466.642C44.6664 466.642 45.5142 465.794 45.5142 464.744C45.5142 463.694 44.6626 462.845 43.617 462.845C42.5714 462.845 41.7198 463.694 41.7198 464.744C41.7198 465.794 42.5714 466.642 43.617 466.642Z" fill="white" stroke="white" style="fill:white;fill-opacity:1;stroke:white;stroke-opacity:1;" stroke-width="3"/>
<path opacity="0.2" d="M34.4503 449.064C35.4997 449.064 36.3475 448.215 36.3475 447.166C36.3475 446.116 35.4997 445.267 34.4503 445.267C33.401 445.267 32.5531 446.119 32.5531 447.166C32.5531 448.212 33.4048 449.064 34.4503 449.064Z" fill="white" stroke="white" style="fill:white;fill-opacity:1;stroke:white;stroke-opacity:1;" stroke-width="3"/>
<path opacity="0.2" d="M26.428 430.934C27.4774 430.934 28.3252 430.086 28.3252 429.036C28.3252 427.986 27.4774 427.138 26.428 427.138C25.3787 427.138 24.5308 427.99 24.5308 429.036C24.5308 430.082 25.3825 430.934 26.428 430.934Z" fill="white" stroke="white" style="fill:white;fill-opacity:1;stroke:white;stroke-opacity:1;" stroke-width="3"/>
<path opacity="0.2" d="M19.5844 412.268C20.5995 412.268 21.4207 411.446 21.4207 410.431C21.4207 409.415 20.5995 408.593 19.5844 408.593C18.5692 408.593 17.748 409.415 17.748 410.431C17.748 411.446 18.5692 412.268 19.5844 412.268Z" fill="white" stroke="white" style="fill:white;fill-opacity:1;stroke:white;stroke-opacity:1;" stroke-width="3"/>
<path opacity="0.2" d="M13.9459 393.26C14.9611 393.26 15.7823 392.438 15.7823 391.422C15.7823 390.407 14.9611 389.585 13.9459 389.585C12.9308 389.585 12.1096 390.407 12.1096 391.422C12.1096 392.438 12.9308 393.26 13.9459 393.26Z" fill="white" stroke="white" style="fill:white;fill-opacity:1;stroke:white;stroke-opacity:1;" stroke-width="3"/>
<path opacity="0.2" d="M9.5356 373.932C10.5507 373.932 11.372 373.11 11.372 372.094C11.372 371.079 10.5507 370.257 9.5356 370.257C8.52046 370.257 7.69922 371.079 7.69922 372.094C7.69922 373.11 8.52046 373.932 9.5356 373.932Z" fill="white" stroke="white" style="fill:white;fill-opacity:1;stroke:white;stroke-opacity:1;" stroke-width="3"/>
<path opacity="0.2" d="M6.37611 354.357C7.39125 354.357 8.21249 353.535 8.21249 352.519C8.21249 351.504 7.39125 350.682 6.37611 350.682C5.36097 350.682 4.53973 351.504 4.53973 352.519C4.53973 353.535 5.36097 354.357 6.37611 354.357Z" fill="white" stroke="white" style="fill:white;fill-opacity:1;stroke:white;stroke-opacity:1;" stroke-width="3"/>
<path opacity="0.2" d="M4.47133 334.622C5.48647 334.622 6.30771 333.8 6.30771 332.784C6.30771 331.769 5.48647 330.947 4.47133 330.947C3.45619 330.947 2.63495 331.769 2.63495 332.784C2.63495 333.8 3.45619 334.622 4.47133 334.622Z" fill="white" stroke="white" style="fill:white;fill-opacity:1;stroke:white;stroke-opacity:1;" stroke-width="3"/>
<path opacity="0.2" d="M3.83638 314.807C4.85152 314.807 5.67276 313.985 5.67276 312.97C5.67276 311.954 4.85152 311.132 3.83638 311.132C2.82124 311.132 2 311.954 2 312.97C2 313.985 2.82124 314.807 3.83638 314.807Z" fill="white" stroke="white" style="fill:white;fill-opacity:1;stroke:white;stroke-opacity:1;" stroke-width="3"/>
<path opacity="0.2" d="M4.47133 294.992C5.48647 294.992 6.30771 294.17 6.30771 293.155C6.30771 292.139 5.48647 291.317 4.47133 291.317C3.45619 291.317 2.63495 292.139 2.63495 293.155C2.63495 294.17 3.45619 294.992 4.47133 294.992Z" fill="white" stroke="white" style="fill:white;fill-opacity:1;stroke:white;stroke-opacity:1;" stroke-width="3"/>
<path opacity="0.2" d="M6.37611 275.257C7.39125 275.257 8.21249 274.435 8.21249 273.42C8.21249 272.404 7.39125 271.583 6.37611 271.583C5.36097 271.583 4.53973 272.404 4.53973 273.42C4.53973 274.435 5.36097 275.257 6.37611 275.257Z" fill="white" stroke="white" style="fill:white;fill-opacity:1;stroke:white;stroke-opacity:1;" stroke-width="3"/>
<path opacity="0.2" d="M9.5356 255.682C10.5507 255.682 11.372 254.86 11.372 253.845C11.372 252.829 10.5507 252.007 9.5356 252.007C8.52046 252.007 7.69922 252.829 7.69922 253.845C7.69922 254.86 8.52046 255.682 9.5356 255.682Z" fill="white" stroke="white" style="fill:white;fill-opacity:1;stroke:white;stroke-opacity:1;" stroke-width="3"/>
<path opacity="0.2" d="M13.9459 236.354C14.9611 236.354 15.7823 235.532 15.7823 234.517C15.7823 233.501 14.9611 232.679 13.9459 232.679C12.9308 232.679 12.1096 233.501 12.1096 234.517C12.1096 235.532 12.9308 236.354 13.9459 236.354Z" fill="white" stroke="white" style="fill:white;fill-opacity:1;stroke:white;stroke-opacity:1;" stroke-width="3"/>
<path opacity="0.2" d="M19.5844 217.346C20.5995 217.346 21.4207 216.524 21.4207 215.508C21.4207 214.493 20.5995 213.671 19.5844 213.671C18.5692 213.671 17.748 214.493 17.748 215.508C17.748 216.524 18.5692 217.346 19.5844 217.346Z" fill="white" stroke="white" style="fill:white;fill-opacity:1;stroke:white;stroke-opacity:1;" stroke-width="3"/>
<path opacity="0.2" d="M26.428 198.741C27.4431 198.741 28.2644 197.919 28.2644 196.903C28.2644 195.888 27.4431 195.066 26.428 195.066C25.4129 195.066 24.5916 195.888 24.5916 196.903C24.5916 197.919 25.4129 198.741 26.428 198.741Z" fill="white" stroke="white" style="fill:white;fill-opacity:1;stroke:white;stroke-opacity:1;" stroke-width="3"/>
<path opacity="0.2" d="M34.4503 180.611C35.4654 180.611 36.2866 179.789 36.2866 178.774C36.2866 177.758 35.4654 176.936 34.4503 176.936C33.4351 176.936 32.6139 177.758 32.6139 178.774C32.6139 179.789 33.4351 180.611 34.4503 180.611Z" fill="white" stroke="white" style="fill:white;fill-opacity:1;stroke:white;stroke-opacity:1;" stroke-width="3"/>
<path opacity="0.2" d="M43.617 163.033C44.6321 163.033 45.4533 162.211 45.4533 161.196C45.4533 160.18 44.6321 159.358 43.617 159.358C42.6018 159.358 41.7806 160.18 41.7806 161.196C41.7806 162.211 42.6018 163.033 43.617 163.033Z" fill="white" stroke="white" style="fill:white;fill-opacity:1;stroke:white;stroke-opacity:1;" stroke-width="3"/>
<path opacity="0.2" d="M53.89 146.079C54.9052 146.079 55.7264 145.257 55.7264 144.241C55.7264 143.226 54.9052 142.404 53.89 142.404C52.8749 142.404 52.0536 143.226 52.0536 144.241C52.0536 145.257 52.8749 146.079 53.89 146.079Z" fill="white" stroke="white" style="fill:white;fill-opacity:1;stroke:white;stroke-opacity:1;" stroke-width="3"/>
<path opacity="0.2" d="M65.2277 129.817C66.2428 129.817 67.0641 128.995 67.0641 127.979C67.0641 126.964 66.2428 126.142 65.2277 126.142C64.2125 126.142 63.3913 126.964 63.3913 127.979C63.3913 128.995 64.2125 129.817 65.2277 129.817Z" fill="white" stroke="white" style="fill:white;fill-opacity:1;stroke:white;stroke-opacity:1;" stroke-width="3"/>
<path opacity="0.2" d="M77.5805 114.316C78.5956 114.316 79.4168 113.494 79.4168 112.478C79.4168 111.463 78.5956 110.641 77.5805 110.641C76.5653 110.641 75.7441 111.463 75.7441 112.478C75.7441 113.494 76.5653 114.316 77.5805 114.316Z" fill="white" stroke="white" style="fill:white;fill-opacity:1;stroke:white;stroke-opacity:1;" stroke-width="3"/>
<path opacity="0.2" d="M90.9028 99.6399C91.9179 99.6399 92.7392 98.8183 92.7392 97.8026C92.7392 96.787 91.9179 95.9653 90.9028 95.9653C89.8876 95.9653 89.0664 96.787 89.0664 97.8026C89.0664 98.8183 89.8876 99.6399 90.9028 99.6399Z" fill="white" stroke="white" style="fill:white;fill-opacity:1;stroke:white;stroke-opacity:1;" stroke-width="3"/>
<path opacity="0.2" d="M105.141 85.8467C106.157 85.8467 106.978 85.0251 106.978 84.0094C106.978 82.9938 106.157 82.1721 105.141 82.1721C104.126 82.1721 103.305 82.9938 103.305 84.0094C103.305 85.0251 104.126 85.8467 105.141 85.8467Z" fill="white" stroke="white" style="fill:white;fill-opacity:1;stroke:white;stroke-opacity:1;" stroke-width="3"/>
<path opacity="0.2" d="M120.228 72.9932C121.243 72.9932 122.064 72.1716 122.064 71.1559C122.064 70.1403 121.243 69.3186 120.228 69.3186C119.213 69.3186 118.391 70.1403 118.391 71.1559C118.391 72.1716 119.213 72.9932 120.228 72.9932Z" fill="white" stroke="white" style="fill:white;fill-opacity:1;stroke:white;stroke-opacity:1;" stroke-width="3"/>
<path opacity="0.2" d="M136.109 61.1363C137.124 61.1363 137.945 60.3146 137.945 59.299C137.945 58.2833 137.124 57.4617 136.109 57.4617C135.094 57.4617 134.272 58.2833 134.272 59.299C134.272 60.3146 135.094 61.1363 136.109 61.1363Z" fill="white" stroke="white" style="fill:white;fill-opacity:1;stroke:white;stroke-opacity:1;" stroke-width="3"/>
<path opacity="0.2" d="M152.716 50.3216C153.731 50.3216 154.553 49.4999 154.553 48.4843C154.553 47.4686 153.731 46.647 152.716 46.647C151.701 46.647 150.88 47.4686 150.88 48.4843C150.88 49.4999 151.701 50.3216 152.716 50.3216Z" fill="white" stroke="white" style="fill:white;fill-opacity:1;stroke:white;stroke-opacity:1;" stroke-width="3"/>
<path opacity="0.2" d="M169.985 40.5911C171 40.5911 171.821 39.7695 171.821 38.7538C171.821 37.7382 171 36.9165 169.985 36.9165C168.97 36.9165 168.149 37.7382 168.149 38.7538C168.149 39.7695 168.97 40.5911 169.985 40.5911Z" fill="white" stroke="white" style="fill:white;fill-opacity:1;stroke:white;stroke-opacity:1;" stroke-width="3"/>
<path opacity="0.2" d="M187.839 31.9866C188.854 31.9866 189.676 31.165 189.676 30.1493C189.676 29.1337 188.854 28.312 187.839 28.312C186.824 28.312 186.003 29.1337 186.003 30.1493C186.003 31.165 186.824 31.9866 187.839 31.9866Z" fill="white" stroke="white" style="fill:white;fill-opacity:1;stroke:white;stroke-opacity:1;" stroke-width="3"/>
<path opacity="0.2" d="M206.207 24.5461C207.222 24.5461 208.043 23.7244 208.043 22.7088C208.043 21.6931 207.222 20.8715 206.207 20.8715C205.192 20.8715 204.37 21.6931 204.37 22.7088C204.37 23.7244 205.192 24.5461 206.207 24.5461Z" fill="white" stroke="white" style="fill:white;fill-opacity:1;stroke:white;stroke-opacity:1;" stroke-width="3"/>
<path opacity="0.2" d="M225.012 18.3C226.027 18.3 226.848 17.4783 226.848 16.4627C226.848 15.447 226.027 14.6254 225.012 14.6254C223.996 14.6254 223.175 15.447 223.175 16.4627C223.175 17.4783 223.996 18.3 225.012 18.3Z" fill="white" stroke="white" style="fill:white;fill-opacity:1;stroke:white;stroke-opacity:1;" stroke-width="3"/>
<path opacity="0.2" d="M244.181 13.2712C245.197 13.2712 246.018 12.4495 246.018 11.4339C246.018 10.4182 245.197 9.59656 244.181 9.59656C243.166 9.59656 242.345 10.4182 242.345 11.4339C242.345 12.4495 243.166 13.2712 244.181 13.2712Z" fill="white" stroke="white" style="fill:white;fill-opacity:1;stroke:white;stroke-opacity:1;" stroke-width="3"/>
<path opacity="0.2" d="M263.633 9.48236C264.648 9.48236 265.469 8.66071 265.469 7.64505C265.469 6.62939 264.648 5.80774 263.633 5.80774C262.618 5.80774 261.796 6.62939 261.796 7.64505C261.796 8.66071 262.618 9.48236 263.633 9.48236Z" fill="white" stroke="white" style="fill:white;fill-opacity:1;stroke:white;stroke-opacity:1;" stroke-width="3"/>
<path opacity="0.2" d="M283.285 6.94513C284.3 6.94513 285.122 6.12347 285.122 5.10782C285.122 4.09216 284.3 3.27051 283.285 3.27051C282.27 3.27051 281.449 4.09216 281.449 5.10782C281.449 6.12347 282.27 6.94513 283.285 6.94513Z" fill="white" stroke="white" style="fill:white;fill-opacity:1;stroke:white;stroke-opacity:1;" stroke-width="3"/>
<path opacity="0.2" d="M303.063 5.67462C304.079 5.67462 304.9 4.85297 304.9 3.83731C304.9 2.82165 304.079 2 303.063 2C302.048 2 301.227 2.82165 301.227 3.83731C301.227 4.85297 302.048 5.67462 303.063 5.67462Z" fill="white" stroke="white" style="fill:white;fill-opacity:1;stroke:white;stroke-opacity:1;" stroke-width="3"/>
<path opacity="0.2" d="M622.103 314.868C623.152 314.868 624 314.016 624 312.97C624 311.923 623.148 311.071 622.103 311.071C621.057 311.071 620.206 311.923 620.206 312.97C620.206 314.016 621.057 314.868 622.103 314.868Z" fill="white" stroke="white" style="fill:white;fill-opacity:1;stroke:white;stroke-opacity:1;" stroke-width="3"/>
<path opacity="0.2" d="M621.468 334.686C622.517 334.686 623.365 333.834 623.365 332.788C623.365 331.742 622.513 330.89 621.468 330.89C620.422 330.89 619.571 331.742 619.571 332.788C619.571 333.834 620.422 334.686 621.468 334.686Z" fill="white" stroke="white" style="fill:white;fill-opacity:1;stroke:white;stroke-opacity:1;" stroke-width="3"/>
<path opacity="0.2" d="M619.567 354.421C620.616 354.421 621.464 353.573 621.464 352.523C621.464 351.473 620.616 350.625 619.567 350.625C618.518 350.625 617.67 351.473 617.67 352.523C617.67 353.573 618.521 354.421 619.567 354.421Z" fill="white" stroke="white" style="fill:white;fill-opacity:1;stroke:white;stroke-opacity:1;" stroke-width="3"/>
<path opacity="0.2" d="M616.404 373.993C617.453 373.993 618.301 373.141 618.301 372.094C618.301 371.048 617.449 370.196 616.404 370.196C615.358 370.196 614.506 371.048 614.506 372.094C614.506 373.141 615.354 373.993 616.404 373.993Z" fill="white" stroke="white" style="fill:white;fill-opacity:1;stroke:white;stroke-opacity:1;" stroke-width="3"/>
<path opacity="0.2" d="M611.993 393.321C613.041 393.321 613.89 392.471 613.89 391.422C613.89 390.374 613.041 389.524 611.993 389.524C610.945 389.524 610.096 390.374 610.096 391.422C610.096 392.471 610.945 393.321 611.993 393.321Z" fill="white" stroke="white" style="fill:white;fill-opacity:1;stroke:white;stroke-opacity:1;" stroke-width="3"/>
<path opacity="0.2" d="M606.355 412.329C607.404 412.329 608.252 411.477 608.252 410.431C608.252 409.385 607.404 408.532 606.355 408.532C605.305 408.532 604.458 409.385 604.458 410.431C604.458 411.477 605.309 412.329 606.355 412.329Z" fill="white" stroke="white" style="fill:white;fill-opacity:1;stroke:white;stroke-opacity:1;" stroke-width="3"/>
<path opacity="0.2" d="M599.511 430.995C600.595 430.995 601.469 430.116 601.469 429.036C601.469 427.956 600.591 427.077 599.511 427.077C598.431 427.077 597.553 427.956 597.553 429.036C597.553 430.116 598.431 430.995 599.511 430.995Z" fill="white" stroke="white" style="fill:white;fill-opacity:1;stroke:white;stroke-opacity:1;" stroke-width="3"/>
<path opacity="0.2" d="M591.489 449.125C592.572 449.125 593.447 448.246 593.447 447.166C593.447 446.085 592.569 445.207 591.489 445.207C590.409 445.207 589.531 446.085 589.531 447.166C589.531 448.246 590.409 449.125 591.489 449.125Z" fill="white" stroke="white" style="fill:white;fill-opacity:1;stroke:white;stroke-opacity:1;" stroke-width="3"/>
<path opacity="0.2" d="M582.322 466.703C583.406 466.703 584.28 465.824 584.28 464.744C584.28 463.663 583.402 462.785 582.322 462.785C581.242 462.785 580.364 463.663 580.364 464.744C580.364 465.824 581.242 466.703 582.322 466.703Z" fill="white" stroke="white" style="fill:white;fill-opacity:1;stroke:white;stroke-opacity:1;" stroke-width="3"/>
<path opacity="0.2" d="M572.053 483.596C573.102 483.596 573.95 482.748 573.95 481.698C573.95 480.648 573.102 479.8 572.053 479.8C571.004 479.8 570.156 480.648 570.156 481.698C570.156 482.748 571.004 483.596 572.053 483.596Z" fill="white" stroke="white" style="fill:white;fill-opacity:1;stroke:white;stroke-opacity:1;" stroke-width="3"/>
<path opacity="0.2" d="M560.715 499.919C561.799 499.919 562.673 499.04 562.673 497.96C562.673 496.879 561.795 496.001 560.715 496.001C559.635 496.001 558.757 496.879 558.757 497.96C558.757 499.04 559.635 499.919 560.715 499.919Z" fill="white" stroke="white" style="fill:white;fill-opacity:1;stroke:white;stroke-opacity:1;" stroke-width="3"/>
<path opacity="0.2" d="M548.359 515.359C549.408 515.359 550.256 514.507 550.256 513.461C550.256 512.415 549.404 511.563 548.359 511.563C547.313 511.563 546.461 512.411 546.461 513.461C546.461 514.511 547.309 515.359 548.359 515.359Z" fill="white" stroke="white" style="fill:white;fill-opacity:1;stroke:white;stroke-opacity:1;" stroke-width="3"/>
<path opacity="0.2" d="M535.036 530.096C536.12 530.096 536.994 529.217 536.994 528.137C536.994 527.056 536.116 526.177 535.036 526.177C533.957 526.177 533.078 527.056 533.078 528.137C533.078 529.217 533.957 530.096 535.036 530.096Z" fill="white" stroke="white" style="fill:white;fill-opacity:1;stroke:white;stroke-opacity:1;" stroke-width="3"/>
<path opacity="0.2" d="M520.802 543.889C521.885 543.889 522.76 543.01 522.76 541.93C522.76 540.849 521.881 539.971 520.802 539.971C519.722 539.971 518.844 540.849 518.844 541.93C518.844 543.01 519.722 543.889 520.802 543.889Z" fill="white" stroke="white" style="fill:white;fill-opacity:1;stroke:white;stroke-opacity:1;" stroke-width="3"/>
<path opacity="0.2" d="M505.711 556.742C506.795 556.742 507.669 555.864 507.669 554.783C507.669 553.703 506.791 552.824 505.711 552.824C504.632 552.824 503.753 553.703 503.753 554.783C503.753 555.864 504.632 556.742 505.711 556.742Z" fill="white" stroke="white" style="fill:white;fill-opacity:1;stroke:white;stroke-opacity:1;" stroke-width="3"/>
<path opacity="0.2" d="M489.83 568.538C490.88 568.538 491.728 567.686 491.728 566.64C491.728 565.594 490.88 564.742 489.83 564.742C488.781 564.742 487.933 565.594 487.933 566.64C487.933 567.686 488.785 568.538 489.83 568.538Z" fill="white" stroke="white" style="fill:white;fill-opacity:1;stroke:white;stroke-opacity:1;" stroke-width="3"/>
<path opacity="0.2" d="M473.223 579.357C474.272 579.357 475.12 578.505 475.12 577.459C475.12 576.413 474.269 575.561 473.223 575.561C472.178 575.561 471.326 576.409 471.326 577.459C471.326 578.509 472.178 579.357 473.223 579.357Z" fill="white" stroke="white" style="fill:white;fill-opacity:1;stroke:white;stroke-opacity:1;" stroke-width="3"/>
<path opacity="0.2" d="M455.958 589.144C457.042 589.144 457.916 588.266 457.916 587.185C457.916 586.105 457.038 585.226 455.958 585.226C454.878 585.226 454 586.105 454 587.185C454 588.266 454.878 589.144 455.958 589.144Z" fill="white" stroke="white" style="fill:white;fill-opacity:1;stroke:white;stroke-opacity:1;" stroke-width="3"/>
<path opacity="0.2" d="M438.104 597.749C439.187 597.749 440.062 596.87 440.062 595.79C440.062 594.71 439.184 593.831 438.104 593.831C437.024 593.831 436.146 594.71 436.146 595.79C436.146 596.87 437.024 597.749 438.104 597.749Z" fill="white" stroke="white" style="fill:white;fill-opacity:1;stroke:white;stroke-opacity:1;" stroke-width="3"/>
<path opacity="0.2" d="M419.732 605.19C420.816 605.19 421.69 604.311 421.69 603.231C421.69 602.15 420.812 601.271 419.732 601.271C418.653 601.271 417.774 602.15 417.774 603.231C417.774 604.311 418.653 605.19 419.732 605.19Z" fill="white" stroke="white" style="fill:white;fill-opacity:1;stroke:white;stroke-opacity:1;" stroke-width="3"/>
<path opacity="0.2" d="M400.928 611.375C401.977 611.375 402.825 610.523 402.825 609.477C402.825 608.43 401.973 607.578 400.928 607.578C399.882 607.578 399.03 608.427 399.03 609.477C399.03 610.526 399.882 611.375 400.928 611.375Z" fill="white" stroke="white" style="fill:white;fill-opacity:1;stroke:white;stroke-opacity:1;" stroke-width="3"/>
<path opacity="0.2" d="M381.758 616.404C382.807 616.404 383.655 615.551 383.655 614.505C383.655 613.459 382.803 612.607 381.758 612.607C380.712 612.607 379.861 613.456 379.861 614.505C379.861 615.555 380.708 616.404 381.758 616.404Z" fill="white" stroke="white" style="fill:white;fill-opacity:1;stroke:white;stroke-opacity:1;" stroke-width="3"/>
<path opacity="0.2" d="M362.307 620.192C363.354 620.192 364.204 619.342 364.204 618.294C364.204 617.246 363.354 616.396 362.307 616.396C361.259 616.396 360.409 617.246 360.409 618.294C360.409 619.342 361.259 620.192 362.307 620.192Z" fill="white" stroke="white" style="fill:white;fill-opacity:1;stroke:white;stroke-opacity:1;" stroke-width="3"/>
<path opacity="0.2" d="M342.654 622.729C343.703 622.729 344.551 621.881 344.551 620.831C344.551 619.781 343.699 618.933 342.654 618.933C341.608 618.933 340.757 619.785 340.757 620.831C340.757 621.877 341.605 622.729 342.654 622.729Z" fill="white" stroke="white" style="fill:white;fill-opacity:1;stroke:white;stroke-opacity:1;" stroke-width="3"/>
<path opacity="0.2" d="M322.88 624C323.929 624 324.777 623.148 324.777 622.102C324.777 621.056 323.925 620.204 322.88 620.204C321.834 620.204 320.982 621.056 320.982 622.102C320.982 623.148 321.83 624 322.88 624Z" fill="white" stroke="white" style="fill:white;fill-opacity:1;stroke:white;stroke-opacity:1;" stroke-width="3"/>
<path opacity="0.2" d="M303.063 624C304.111 624 304.961 623.15 304.961 622.102C304.961 621.053 304.111 620.204 303.063 620.204C302.016 620.204 301.166 621.053 301.166 622.102C301.166 623.15 302.016 624 303.063 624Z" fill="white" stroke="white" style="fill:white;fill-opacity:1;stroke:white;stroke-opacity:1;" stroke-width="3"/>
<path opacity="0.2" d="M283.95 622.587C284.94 622.243 285.464 621.162 285.12 620.171C284.777 619.181 283.696 618.657 282.706 619.001C281.716 619.345 281.192 620.426 281.536 621.417C281.88 622.407 282.961 622.931 283.95 622.587Z" fill="white" stroke="white" style="fill:white;fill-opacity:1;stroke:white;stroke-opacity:1;" stroke-width="3"/>
<path opacity="0.2" d="M263.633 620.192C264.682 620.192 265.53 619.344 265.53 618.294C265.53 617.244 264.678 616.396 263.633 616.396C262.587 616.396 261.735 617.248 261.735 618.294C261.735 619.34 262.583 620.192 263.633 620.192Z" fill="white" stroke="white" style="fill:white;fill-opacity:1;stroke:white;stroke-opacity:1;" stroke-width="3"/>
<path opacity="0.2" d="M244.181 616.404C245.231 616.404 246.079 615.551 246.079 614.505C246.079 613.459 245.231 612.607 244.181 612.607C243.132 612.607 242.284 613.456 242.284 614.505C242.284 615.555 243.136 616.404 244.181 616.404Z" fill="white" stroke="white" style="fill:white;fill-opacity:1;stroke:white;stroke-opacity:1;" stroke-width="3"/>
<path opacity="0.2" d="M225.012 611.375C226.061 611.375 226.909 610.523 226.909 609.477C226.909 608.43 226.057 607.578 225.012 607.578C223.966 607.578 223.114 608.427 223.114 609.477C223.114 610.526 223.966 611.375 225.012 611.375Z" fill="white" stroke="white" style="fill:white;fill-opacity:1;stroke:white;stroke-opacity:1;" stroke-width="3"/>
<path opacity="0.2" d="M206.207 605.129C207.256 605.129 208.104 604.28 208.104 603.23C208.104 602.181 207.256 601.332 206.207 601.332C205.157 601.332 204.31 602.184 204.31 603.23C204.31 604.277 205.157 605.129 206.207 605.129Z" fill="white" stroke="white" style="fill:white;fill-opacity:1;stroke:white;stroke-opacity:1;" stroke-width="3"/>
<path opacity="0.2" d="M187.839 597.688C188.889 597.688 189.736 596.836 189.736 595.79C189.736 594.744 188.889 593.892 187.839 593.892C186.79 593.892 185.942 594.744 185.942 595.79C185.942 596.836 186.79 597.688 187.839 597.688Z" fill="white" stroke="white" style="fill:white;fill-opacity:1;stroke:white;stroke-opacity:1;" stroke-width="3"/>
<path opacity="0.2" d="M169.985 589.083C171.034 589.083 171.882 588.231 171.882 587.185C171.882 586.139 171.03 585.287 169.985 585.287C168.939 585.287 168.088 586.135 168.088 587.185C168.088 588.235 168.935 589.083 169.985 589.083Z" fill="white" stroke="white" style="fill:white;fill-opacity:1;stroke:white;stroke-opacity:1;" stroke-width="3"/>
<path opacity="0.2" d="M152.716 579.357C153.765 579.357 154.613 578.505 154.613 577.459C154.613 576.413 153.762 575.561 152.716 575.561C151.671 575.561 150.819 576.409 150.819 577.459C150.819 578.509 151.671 579.357 152.716 579.357Z" fill="white" stroke="white" style="fill:white;fill-opacity:1;stroke:white;stroke-opacity:1;" stroke-width="3"/>
<path opacity="0.2" d="M136.109 568.538C137.158 568.538 138.006 567.686 138.006 566.64C138.006 565.594 137.154 564.742 136.109 564.742C135.063 564.742 134.212 565.594 134.212 566.64C134.212 567.686 135.06 568.538 136.109 568.538Z" fill="white" stroke="white" style="fill:white;fill-opacity:1;stroke:white;stroke-opacity:1;" stroke-width="3"/>
<path opacity="0.2" d="M120.228 556.681C121.277 556.681 122.125 555.829 122.125 554.783C122.125 553.737 121.277 552.885 120.228 552.885C119.178 552.885 118.331 553.733 118.331 554.783C118.331 555.833 119.178 556.681 120.228 556.681Z" fill="white" stroke="white" style="fill:white;fill-opacity:1;stroke:white;stroke-opacity:1;" stroke-width="3"/>
<path opacity="0.2" d="M105.141 543.828C106.191 543.828 107.039 542.98 107.039 541.93C107.039 540.88 106.191 540.031 105.141 540.031C104.092 540.031 103.244 540.884 103.244 541.93C103.244 542.976 104.092 543.828 105.141 543.828Z" fill="white" stroke="white" style="fill:white;fill-opacity:1;stroke:white;stroke-opacity:1;" stroke-width="3"/>
<path opacity="0.2" d="M90.9028 530.035C91.9521 530.035 92.8 529.183 92.8 528.136C92.8 527.09 91.9483 526.238 90.9028 526.238C89.8572 526.238 89.0056 527.087 89.0056 528.136C89.0056 529.186 89.8572 530.035 90.9028 530.035Z" fill="white" stroke="white" style="fill:white;fill-opacity:1;stroke:white;stroke-opacity:1;" stroke-width="3"/>
<path opacity="0.2" d="M342.654 6.94513C343.669 6.94513 344.49 6.12347 344.49 5.10782C344.49 4.09216 343.669 3.27051 342.654 3.27051C341.639 3.27051 340.818 4.09216 340.818 5.10782C340.818 6.12347 341.639 6.94513 342.654 6.94513Z" fill="white" stroke="white" style="fill:white;fill-opacity:1;stroke:white;stroke-opacity:1;" stroke-width="3"/>
<path opacity="0.2" d="M362.307 9.48236C363.322 9.48236 364.143 8.66071 364.143 7.64505C364.143 6.62939 363.322 5.80774 362.307 5.80774C361.291 5.80774 360.47 6.62939 360.47 7.64505C360.47 8.66071 361.291 9.48236 362.307 9.48236Z" fill="white" stroke="white" style="fill:white;fill-opacity:1;stroke:white;stroke-opacity:1;" stroke-width="3"/>
<path opacity="0.2" d="M381.758 13.2711C382.773 13.2711 383.594 12.4494 383.594 11.4337C383.594 10.4181 382.773 9.59644 381.758 9.59644C380.743 9.59644 379.921 10.4181 379.921 11.4337C379.921 12.4494 380.743 13.2711 381.758 13.2711Z" fill="white" stroke="white" style="fill:white;fill-opacity:1;stroke:white;stroke-opacity:1;" stroke-width="3"/>
<path opacity="0.2" d="M400.928 18.3C401.943 18.3 402.764 17.4783 402.764 16.4627C402.764 15.447 401.943 14.6254 400.928 14.6254C399.912 14.6254 399.091 15.447 399.091 16.4627C399.091 17.4783 399.912 18.3 400.928 18.3Z" fill="white" stroke="white" style="fill:white;fill-opacity:1;stroke:white;stroke-opacity:1;" stroke-width="3"/>
<path opacity="0.2" d="M419.732 24.5461C420.747 24.5461 421.569 23.7244 421.569 22.7088C421.569 21.6931 420.747 20.8715 419.732 20.8715C418.717 20.8715 417.896 21.6931 417.896 22.7088C417.896 23.7244 418.717 24.5461 419.732 24.5461Z" fill="white" stroke="white" style="fill:white;fill-opacity:1;stroke:white;stroke-opacity:1;" stroke-width="3"/>
<path opacity="0.2" d="M438.104 32.0474C439.153 32.0474 440.001 31.1992 440.001 30.1493C440.001 29.0994 439.153 28.2511 438.104 28.2511C437.054 28.2511 436.207 29.1032 436.207 30.1493C436.207 31.1954 437.058 32.0474 438.104 32.0474Z" fill="white" stroke="white" style="fill:white;fill-opacity:1;stroke:white;stroke-opacity:1;" stroke-width="3"/>
<path opacity="0.2" d="M455.958 40.6519C457.007 40.6519 457.855 39.8037 457.855 38.7538C457.855 37.7039 457.007 36.8556 455.958 36.8556C454.909 36.8556 454.061 37.7039 454.061 38.7538C454.061 39.8037 454.913 40.6519 455.958 40.6519Z" fill="white" stroke="white" style="fill:white;fill-opacity:1;stroke:white;stroke-opacity:1;" stroke-width="3"/>
<path opacity="0.2" d="M473.223 50.3825C474.272 50.3825 475.12 49.5342 475.12 48.4844C475.12 47.4345 474.269 46.5862 473.223 46.5862C472.178 46.5862 471.326 47.4383 471.326 48.4844C471.326 49.5304 472.178 50.3825 473.223 50.3825Z" fill="white" stroke="white" style="fill:white;fill-opacity:1;stroke:white;stroke-opacity:1;" stroke-width="3"/>
<path opacity="0.2" d="M489.83 61.1971C490.88 61.1971 491.728 60.345 491.728 59.2989C491.728 58.2528 490.88 57.4008 489.83 57.4008C488.781 57.4008 487.933 58.2528 487.933 59.2989C487.933 60.345 488.785 61.1971 489.83 61.1971Z" fill="white" stroke="white" style="fill:white;fill-opacity:1;stroke:white;stroke-opacity:1;" stroke-width="3"/>
<path opacity="0.2" d="M505.711 73.054C506.761 73.054 507.609 72.2058 507.609 71.1559C507.609 70.106 506.761 69.2577 505.711 69.2577C504.662 69.2577 503.814 70.1098 503.814 71.1559C503.814 72.202 504.666 73.054 505.711 73.054Z" fill="white" stroke="white" style="fill:white;fill-opacity:1;stroke:white;stroke-opacity:1;" stroke-width="3"/>
<path opacity="0.2" d="M520.802 85.9077C521.851 85.9077 522.699 85.0556 522.699 84.0095C522.699 82.9634 521.851 82.1113 520.802 82.1113C519.752 82.1113 518.904 82.9634 518.904 84.0095C518.904 85.0556 519.756 85.9077 520.802 85.9077Z" fill="white" stroke="white" style="fill:white;fill-opacity:1;stroke:white;stroke-opacity:1;" stroke-width="3"/>
<path opacity="0.2" d="M535.036 99.7008C536.086 99.7008 536.934 98.8525 536.934 97.8026C536.934 96.7527 536.082 95.9044 535.036 95.9044C533.991 95.9044 533.139 96.7565 533.139 97.8026C533.139 98.8487 533.987 99.7008 535.036 99.7008Z" fill="white" stroke="white" style="fill:white;fill-opacity:1;stroke:white;stroke-opacity:1;" stroke-width="3"/>
<path opacity="0.2" d="M548.359 114.376C549.408 114.376 550.256 113.528 550.256 112.478C550.256 111.428 549.404 110.58 548.359 110.58C547.313 110.58 546.461 111.428 546.461 112.478C546.461 113.528 547.309 114.376 548.359 114.376Z" fill="white" stroke="white" style="fill:white;fill-opacity:1;stroke:white;stroke-opacity:1;" stroke-width="3"/>
<path opacity="0.2" d="M560.715 129.878C561.765 129.878 562.613 129.025 562.613 127.979C562.613 126.933 561.761 126.081 560.715 126.081C559.67 126.081 558.818 126.933 558.818 127.979C558.818 129.025 559.666 129.878 560.715 129.878Z" fill="white" stroke="white" style="fill:white;fill-opacity:1;stroke:white;stroke-opacity:1;" stroke-width="3"/>
<path opacity="0.2" d="M572.053 146.139C573.102 146.139 573.95 145.291 573.95 144.241C573.95 143.191 573.102 142.343 572.053 142.343C571.004 142.343 570.156 143.191 570.156 144.241C570.156 145.291 571.004 146.139 572.053 146.139Z" fill="white" stroke="white" style="fill:white;fill-opacity:1;stroke:white;stroke-opacity:1;" stroke-width="3"/>
<path opacity="0.2" d="M582.322 163.094C583.372 163.094 584.219 162.242 584.219 161.196C584.219 160.149 583.368 159.297 582.322 159.297C581.277 159.297 580.425 160.146 580.425 161.196C580.425 162.245 581.273 163.094 582.322 163.094Z" fill="white" stroke="white" style="fill:white;fill-opacity:1;stroke:white;stroke-opacity:1;" stroke-width="3"/>
<path opacity="0.2" d="M591.489 180.672C592.538 180.672 593.386 179.82 593.386 178.774C593.386 177.728 592.534 176.875 591.489 176.875C590.443 176.875 589.592 177.724 589.592 178.774C589.592 179.824 590.44 180.672 591.489 180.672Z" fill="white" stroke="white" style="fill:white;fill-opacity:1;stroke:white;stroke-opacity:1;" stroke-width="3"/>
<path opacity="0.2" d="M599.511 198.801C600.561 198.801 601.408 197.949 601.408 196.903C601.408 195.857 600.557 195.005 599.511 195.005C598.466 195.005 597.614 195.853 597.614 196.903C597.614 197.953 598.462 198.801 599.511 198.801Z" fill="white" stroke="white" style="fill:white;fill-opacity:1;stroke:white;stroke-opacity:1;" stroke-width="3"/>
<path opacity="0.2" d="M606.355 217.407C607.403 217.407 608.252 216.557 608.252 215.508C608.252 214.46 607.403 213.61 606.355 213.61C605.307 213.61 604.458 214.46 604.458 215.508C604.458 216.557 605.307 217.407 606.355 217.407Z" fill="white" stroke="white" style="fill:white;fill-opacity:1;stroke:white;stroke-opacity:1;" stroke-width="3"/>
<path opacity="0.2" d="M611.993 236.415C613.043 236.415 613.89 235.563 613.89 234.517C613.89 233.471 613.039 232.619 611.993 232.619C610.948 232.619 610.096 233.471 610.096 234.517C610.096 235.563 610.944 236.415 611.993 236.415Z" fill="white" stroke="white" style="fill:white;fill-opacity:1;stroke:white;stroke-opacity:1;" stroke-width="3"/>
<path opacity="0.2" d="M616.404 255.747C617.453 255.747 618.301 254.895 618.301 253.848C618.301 252.802 617.449 251.95 616.404 251.95C615.358 251.95 614.506 252.802 614.506 253.848C614.506 254.895 615.354 255.747 616.404 255.747Z" fill="white" stroke="white" style="fill:white;fill-opacity:1;stroke:white;stroke-opacity:1;" stroke-width="3"/>
<path opacity="0.2" d="M619.567 275.318C620.616 275.318 621.464 274.47 621.464 273.42C621.464 272.37 620.616 271.522 619.567 271.522C618.518 271.522 617.67 272.37 617.67 273.42C617.67 274.47 618.521 275.318 619.567 275.318Z" fill="white" stroke="white" style="fill:white;fill-opacity:1;stroke:white;stroke-opacity:1;" stroke-width="3"/>
<path opacity="0.2" d="M621.468 295.053C622.516 295.053 623.365 294.203 623.365 293.155C623.365 292.106 622.516 291.257 621.468 291.257C620.42 291.257 619.571 292.106 619.571 293.155C619.571 294.203 620.42 295.053 621.468 295.053Z" fill="white" stroke="white" style="fill:white;fill-opacity:1;stroke:white;stroke-opacity:1;" stroke-width="3"/>
</svg>
