<svg width="406" height="121" viewBox="0 0 406 121" fill="none" xmlns="http://www.w3.org/2000/svg">
  <g clip-path="url(#clip0_3046_1648)">
  <path d="M28.8472 113.008C28.8472 113.008 29.0446 113.14 29.1433 113.239C26.7421 116.278 25.5908 117.83 23.2883 121C23.1567 120.901 23.0909 120.868 22.9593 120.769C22.7949 120.241 22.7291 119.976 22.5975 119.448C22.4002 118.721 21.8739 117.962 21.2818 117.5C14.3742 112.381 10.9205 109.838 4.0129 104.719C3.45371 104.29 2.53271 104.059 1.71038 104.092C1.15119 104.125 0.855156 104.158 0.295972 104.224C0.1644 104.125 0.0986136 104.092 -0.032959 103.993C2.5656 100.426 3.88132 98.6758 6.57856 95.2413C6.71013 95.3404 6.77592 95.3734 6.8746 95.4725C6.97328 96.0339 7.03907 96.2981 7.13774 96.8595C7.30221 97.6521 7.76271 98.5107 8.3219 98.973C12.1375 101.978 14.0453 103.497 17.8938 106.503C20.9858 102.507 22.5975 100.558 25.8539 96.7935C22.2028 93.5901 20.3608 91.9719 16.7096 88.7686C16.1834 88.3063 15.2952 87.976 14.44 88.0091C13.8808 88.0091 13.6177 88.0091 13.0914 87.976C12.9598 87.877 12.9269 87.8109 12.7954 87.7118C15.5913 84.4094 17.0386 82.8243 19.9332 79.687C20.0647 79.7861 20.0976 79.8521 20.2292 79.9512C20.295 80.5126 20.3279 80.7768 20.3937 81.3382C20.5253 82.1308 20.8871 83.0224 21.4134 83.5178C27.7288 89.3631 30.8866 92.3022 37.1692 98.1474C37.7284 98.6428 38.5836 98.973 39.3401 99.0391C39.8664 99.1051 40.1296 99.1051 40.6558 99.1712C40.7874 99.2703 40.8203 99.3363 40.9519 99.4354C38.3862 102.209 37.1034 103.629 34.6364 106.536C34.5048 106.436 34.4719 106.37 34.3404 106.271C34.2088 105.743 34.143 105.512 34.0443 104.983C33.9457 104.191 33.4851 103.398 32.926 102.903C30.2616 100.558 28.913 99.4024 26.2487 97.0576C22.9922 100.822 21.4134 102.771 18.2885 106.734C21.0844 108.946 22.4659 110.036 25.2619 112.216C25.8539 112.678 26.7749 112.942 27.4986 112.942C28.0249 112.942 28.3209 112.942 28.8472 112.942V113.008Z" fill="white" style="fill:white;fill-opacity:1;"/>
  <path d="M48.945 79.6869C45.1623 83.0884 43.3203 84.8717 39.702 88.5373C40.5244 90.4527 40.9191 91.4104 41.7743 93.3258C42.1032 94.0193 42.794 94.5477 43.5505 94.7128C43.9781 94.8449 44.2084 94.878 44.636 95.0101C44.7347 95.1091 44.8005 95.1752 44.932 95.2742C43.7479 96.4631 43.1887 97.0906 42.0045 98.3125C41.9059 98.2134 41.8401 98.1473 41.7085 98.0483C41.7085 97.3217 41.7085 96.9585 41.7743 96.1989C41.873 95.4063 41.6756 94.4156 41.3467 93.7221C36.9719 83.7489 34.9654 78.5971 31.3143 68.1615C32.5313 67.0057 33.1234 66.4443 34.3404 65.3545C44.2742 69.9448 49.1424 72.4216 58.5169 77.7055C59.1748 78.1018 60.0958 78.399 60.9181 78.3659C61.6417 78.3659 61.9707 78.399 62.6943 78.432C62.793 78.5641 62.8588 78.6301 62.9575 78.7292C59.8655 81.2721 58.3524 82.56 55.3592 85.268C55.2605 85.1359 55.1947 85.1028 55.096 84.9707C54.9973 84.5084 54.9644 84.2772 54.8987 83.8479C54.7013 83.1214 54.2079 82.3949 53.55 82.0316C51.708 81.0739 50.787 80.6116 48.945 79.6869ZM48.5503 79.4888C42.5966 76.5166 39.5704 75.0635 33.3865 72.3556C35.722 78.7292 36.939 81.8995 39.5705 88.075C43.09 84.5084 44.8991 82.7912 48.5503 79.4557V79.4888ZM24.2751 67.3029C24.9659 65.5196 25.2948 64.628 26.0185 62.8777C28.946 63.1749 30.3933 63.34 33.2879 63.7363C33.0576 63.9344 32.926 64.0665 32.6958 64.2647C29.3407 65.4205 27.6302 66.015 24.2422 67.3359L24.2751 67.3029Z" fill="white" style="fill:white;fill-opacity:1;"/>
  <path d="M58.5827 45.2759C67.5954 38.9022 77.0357 40.3553 81.575 47.9839C86.0813 55.5794 83.5814 64.0005 75.5884 69.6476C67.6283 75.2617 58.7142 75.0635 53.0895 68.1945C47.4648 61.2925 49.5699 51.6495 58.5498 45.3089L58.5827 45.2759ZM75.2595 69.3834C80.3908 65.7508 80.8842 58.7827 76.1476 51.3193C71.4768 43.9219 64.5363 41.5772 58.8787 45.5731C53.0895 49.6681 53.0237 57.3627 58.3524 64.2647C63.6153 71.1007 70.2268 72.95 75.2924 69.3834H75.2595Z" fill="white" style="fill:white;fill-opacity:1;"/>
  <path d="M103.844 19.9135C113.777 15.6534 122.593 19.0549 125.487 27.443C128.382 35.7981 124.303 43.4927 115.554 47.2574C114.731 47.6207 113.942 47.9179 113.152 48.116C113.218 48.8426 113.383 49.47 113.646 50.0645C115.192 53.532 119.271 54.4566 123.349 52.8385C124.698 52.3101 125.816 51.5505 126.408 50.5598C127.494 48.8426 124.862 49.2719 124.04 47.0923C123.448 45.4741 124.336 43.6578 126.441 42.8982C128.744 42.0726 130.783 42.9313 131.441 44.8467C132.329 47.3895 130.553 50.9231 125.323 52.9706C119.764 55.1502 114.797 53.9943 113.087 50.1635C112.823 49.5691 112.626 48.9416 112.56 48.3142C104.929 50.4607 97.7584 47.9509 94.1402 40.9168C90.0614 32.991 93.9099 24.1406 103.778 19.8805L103.844 19.9135ZM112.659 47.6867C112.593 43.955 115.817 39.6949 121.113 37.6804C121.178 35.3027 120.718 32.5287 119.632 29.5896C116.54 21.3996 110.324 17.6349 104.074 20.3098C97.6926 23.0508 96.1795 30.4812 99.9622 38.3409C103.12 44.9127 107.889 48.1821 112.626 47.6867H112.659ZM115.29 46.9602C118.81 45.4411 120.784 42.3368 121.08 38.2088C115.554 40.3884 113.087 44.3183 113.152 47.6207C113.876 47.5216 114.567 47.2904 115.29 46.9932V46.9602Z" fill="white" style="fill:white;fill-opacity:1;"/>
  <path d="M131.309 31.3068C129.303 25.1313 128.283 22.0601 126.277 15.8515C126.047 15.158 125.487 14.4315 124.829 14.0022C124.369 13.705 124.139 13.5399 123.678 13.2427C123.612 13.0775 123.612 13.0115 123.547 12.8794C127.329 11.6245 129.237 11.03 133.053 9.90722C133.086 10.0723 133.119 10.1384 133.151 10.3035C132.954 10.7989 132.855 11.0631 132.625 11.5584C132.362 12.285 132.23 13.2426 132.461 13.9362C134.303 20.1777 135.224 23.282 137.099 29.4905C138.25 33.3543 142.526 36.3595 147.427 35.1045C151.341 34.1138 154.598 30.6133 153.348 24.8671C151.999 18.6916 151.308 15.6204 149.96 9.44489C149.795 8.75138 149.302 7.95881 148.677 7.46345C148.249 7.13321 148.052 6.93506 147.624 6.60482C147.592 6.4397 147.559 6.37366 147.526 6.20853C149.039 5.87829 149.828 5.71317 151.341 5.38293C151.341 5.54805 151.374 5.6141 151.407 5.77922C151.177 6.27458 151.045 6.50575 150.815 7.00111C150.42 7.72764 150.322 8.65231 150.453 9.34582C151.835 15.6864 152.525 18.8567 153.907 25.1973C155.058 30.5142 151.966 35.1376 145.19 36.9869C138.612 38.7702 133.02 36.7227 131.244 31.3398L131.309 31.3068Z" fill="white" style="fill:white;fill-opacity:1;"/>
  <path d="M171.867 22.5553C167.097 23.2158 164.729 23.5791 160.025 24.4707C159.663 26.5182 159.499 27.5089 159.17 29.5564C159.071 30.316 159.334 31.1416 159.828 31.736C160.124 32.0993 160.255 32.2644 160.519 32.5946C160.519 32.7598 160.551 32.8258 160.584 32.9909C159.038 33.2882 158.282 33.4533 156.736 33.7835C156.703 33.6184 156.67 33.5523 156.637 33.3872C157.032 32.7928 157.229 32.4956 157.624 31.9342C158.117 31.3397 158.479 30.4151 158.578 29.6885C160.321 19.0218 161.374 13.7049 163.972 3.07117C165.518 2.84001 166.275 2.70791 167.821 2.50977C173.281 11.9546 175.781 16.7431 180.452 26.4192C180.748 27.1127 181.34 27.8722 181.998 28.3345C182.557 28.7639 182.82 28.962 183.379 29.3913C183.379 29.5564 183.379 29.6225 183.412 29.7876C179.629 30.1178 177.722 30.349 173.972 30.8444C173.972 30.6793 173.972 30.6132 173.906 30.4481C174.071 30.0188 174.169 29.8206 174.334 29.3913C174.564 28.6978 174.564 27.8062 174.235 27.1127C173.281 25.2963 172.821 24.3717 171.834 22.5553H171.867ZM171.669 22.1591C168.544 16.3138 166.9 13.4077 163.446 7.66151C161.966 14.2003 161.308 17.5027 160.124 24.0414C164.729 23.1828 167.031 22.7865 171.669 22.1591Z" fill="white" style="fill:white;fill-opacity:1;"/>
  <path d="M188.182 28.995C188.182 28.995 188.182 29.2262 188.182 29.3913C186.833 29.4904 186.142 29.5234 184.794 29.6555C184.794 29.4904 184.794 29.4243 184.794 29.2592C185.057 28.7969 185.188 28.5987 185.452 28.1364C185.813 27.509 186.044 26.6173 185.978 25.8577C185.32 17.2715 184.991 12.9784 184.333 4.35911C184.267 3.63259 183.906 2.80698 183.379 2.21255C183.017 1.81626 182.82 1.61812 182.458 1.22183C182.458 1.05671 182.458 0.990663 182.425 0.825543C186.109 0.528327 187.919 0.396231 191.603 0.231111C198.938 9.18062 202.26 13.771 208.345 23.1828C208.51 15.3891 208.608 11.4923 208.773 3.69863C208.773 2.9721 208.51 2.11348 207.983 1.453C207.687 1.02369 207.523 0.792519 207.227 0.363207C207.227 0.198087 207.227 0.132039 207.227 -0.0330811C208.773 -0.0330811 209.529 -5.70379e-05 211.075 0.065991C211.075 0.231111 211.075 0.297159 211.075 0.462279C210.713 0.891591 210.549 1.08974 210.22 1.51905C209.727 2.1465 209.365 3.00513 209.332 3.73166C209.102 13.804 208.97 18.8567 208.74 28.962C207.391 28.962 206.7 28.929 205.352 28.896C198.05 17.5687 193.905 12.0207 184.761 1.41998C185.484 11.1951 185.846 16.0826 186.57 25.8247C186.636 26.5843 186.965 27.4099 187.425 27.9713C187.754 28.3676 187.919 28.5657 188.247 28.995H188.182Z" fill="white" style="fill:white;fill-opacity:1;"/>
  <path d="M239.89 13.0115C237.028 12.5821 235.482 10.964 235.745 8.9495C236.107 6.14246 239.758 5.05267 237.752 3.33542C236.666 2.37772 234.693 1.88236 233.147 1.71724C225.219 0.79257 220.285 6.50573 219.759 14.1343C219.167 22.6545 223.838 28.4337 231.239 29.3583C232.719 29.5565 234.298 29.5235 235.877 29.2593C236.436 25.4945 236.699 23.5791 237.258 19.8144C237.357 19.1209 237.192 18.1632 236.831 17.5027C236.567 17.0404 236.436 16.8092 236.173 16.3799C236.173 16.2148 236.206 16.1157 236.239 15.9506C239.955 16.479 241.797 16.7432 245.481 17.4037C245.481 17.5688 245.449 17.6678 245.416 17.833C245.021 18.1962 244.824 18.3613 244.462 18.6916C243.936 19.1869 243.409 20.0456 243.311 20.7391L242.258 26.7494C238.837 29.9528 234.068 31.2737 228.574 30.6463C219.299 29.5895 213.115 23.447 213.509 14.5966C213.904 5.68013 221.47 -0.0990779 232.16 1.12281C239.659 1.98144 246.271 6.10944 245.58 10.0393C245.218 12.1859 242.949 13.4408 239.89 12.9784V13.0115Z" fill="white" style="fill:white;fill-opacity:1;"/>
  <path d="M280.875 34.9394C279.329 39.2655 273.967 40.6195 267.191 38.572C261.369 36.8218 256.172 33.2221 257.06 29.5565C257.52 27.6741 259.527 26.4192 262.125 27.1127C264.494 27.7401 265.645 29.5565 265.152 31.2407C264.527 33.5193 261.5 34.1468 262.75 35.765C263.408 36.5906 264.888 37.4822 266.895 38.0436C271.072 39.2986 274.658 38.2748 275.645 35.4017C278.013 28.2685 259.395 21.9609 261.435 13.6389C262.421 9.51089 268.079 7.79364 274.987 9.80811C280.875 11.5584 286.368 15.8185 285.118 19.4511C284.427 21.3995 282.322 22.1261 279.723 21.2344C277.355 20.4418 276.204 18.8237 276.73 17.1064C277.421 14.8278 280.71 14.3654 279.263 12.5491C278.408 11.5584 276.664 10.7328 275.085 10.2704C270.974 9.04855 267.684 10.1053 267.027 12.5821C265.217 19.352 283.966 26.2541 280.875 34.8733V34.9394Z" fill="white" style="fill:white;fill-opacity:1;"/>
  <path d="M285.348 34.8073C287.65 28.7309 288.769 25.6927 291.071 19.6163C291.335 18.9558 291.335 18.0311 291.104 17.2716C290.94 16.7432 290.841 16.479 290.677 15.9836C290.742 15.8185 290.775 15.7525 290.808 15.6204C294.558 17.0074 296.433 17.7339 300.117 19.286C300.051 19.4181 300.018 19.5172 299.953 19.6493C299.459 19.9135 299.229 20.0456 298.768 20.3098C298.078 20.7061 297.42 21.3666 297.157 22.027C294.722 28.0374 293.473 31.0426 291.038 37.053C289.525 40.7847 291.006 45.8043 295.676 47.9179C299.393 49.6021 304.163 48.9746 306.794 43.6908L313.801 29.5235C314.129 28.896 314.228 27.9714 314.031 27.1458C313.899 26.6174 313.866 26.3532 313.735 25.8248C313.801 25.6927 313.833 25.6267 313.899 25.4615C315.314 26.155 316.037 26.5183 317.452 27.2448C317.386 27.3769 317.353 27.443 317.287 27.6081C316.794 27.8393 316.531 27.9383 316.037 28.1695C315.643 28.3346 315.314 28.5658 315.018 28.797C317.254 29.1932 318.175 28.5658 318.636 28.2356C319.853 27.3109 317.353 25.8908 318.077 24.4708C318.537 23.5461 319.82 23.348 321.169 24.0415C322.682 24.8341 323.241 26.122 322.682 27.1127C322.09 28.2356 320.215 30.4482 314.754 29.0281C314.524 29.2263 314.393 29.5235 314.294 29.7216C311.399 35.5339 309.952 38.44 307.057 44.2522C304.623 49.1067 299.262 50.7579 292.782 47.9179C286.466 45.1438 283.374 40.0581 285.381 34.7743L285.348 34.8073ZM310.478 14.4976C312.222 15.2901 313.044 16.7102 312.386 18.1302C311.301 20.4419 307.715 20.4089 305.643 19.5172C305.643 19.4181 305.676 19.3521 305.709 19.253C307.057 19.5502 308.176 19.3851 308.998 18.8237C307.222 18.0311 306.038 16.7762 306.663 15.3232C307.189 14.1343 308.768 13.771 310.478 14.5636V14.4976Z" fill="white" style="fill:white;fill-opacity:1;"/>
  <path d="M331.596 64.0005C338.898 58.9479 342.681 56.5371 350.411 51.9468C351.101 51.5505 351.529 50.7909 351.562 49.9984C351.562 49.536 351.595 49.2718 351.628 48.8095C351.726 48.6774 351.759 48.6114 351.858 48.4793C353.371 49.5691 354.095 50.1305 355.575 51.2863C355.476 51.4184 355.443 51.4844 355.345 51.6165C354.588 51.6165 354.226 51.6165 353.47 51.6826C352.582 51.6826 351.628 51.9798 350.937 52.3431C341.497 57.8911 336.924 60.8633 328.109 67.0718C326.925 66.2792 326.333 65.8829 325.149 65.0903C327.55 54.5887 328.57 49.2388 330.181 38.44C330.313 37.6804 330.247 36.6567 329.918 35.8311C329.655 35.1376 329.523 34.8073 329.227 34.1138C329.293 33.9817 329.359 33.9157 329.425 33.7836C333.24 35.9962 335.115 37.152 338.832 39.5298C338.734 39.6618 338.701 39.7279 338.635 39.86C338.207 40.0581 337.977 40.1572 337.549 40.3554C336.859 40.7186 336.332 41.4121 336.168 42.1386C334.589 50.9891 333.701 55.3483 331.596 64.0005Z" fill="white" style="fill:white;fill-opacity:1;"/>
  <path d="M346.727 80.7107C346.727 80.7107 346.562 80.9089 346.463 81.0079C343.635 78.6302 342.22 77.4744 339.326 75.2287C339.424 75.0966 339.457 75.0306 339.556 74.8985C340.049 74.7664 340.312 74.6673 340.839 74.5352C341.562 74.3371 342.319 73.8417 342.779 73.2473C348.075 66.4443 350.707 63.0429 356.002 56.2729C356.43 55.7115 356.726 54.8199 356.726 54.0273C356.726 53.4659 356.726 53.2017 356.693 52.6403C356.792 52.5082 356.825 52.4422 356.923 52.3101C360.18 54.8529 361.792 56.1408 364.982 58.8488C364.884 58.9809 364.818 59.047 364.719 59.146C364.16 59.2451 363.897 59.3111 363.37 59.4102C362.581 59.5753 361.726 60.0047 361.298 60.5661C355.838 67.2039 353.075 70.5393 347.615 77.1771C347.121 77.7716 346.858 78.6632 346.825 79.3898C346.825 79.9181 346.792 80.1823 346.759 80.7107H346.727Z" fill="white" style="fill:white;fill-opacity:1;"/>
  <path d="M365.443 76.6157C361.232 81.173 359.127 83.4517 354.917 88.009C357.976 90.8821 359.489 92.3681 362.482 95.4064C363.798 96.7603 365.574 97.3218 367.022 96.7934C367.087 96.7934 367.12 96.7603 367.186 96.7273C367.318 96.8924 367.383 96.9585 367.548 97.0906C366.43 97.5859 365.837 97.8171 364.719 98.3125C358.667 91.8728 355.509 88.8346 348.963 83.1544C349.062 83.0224 349.128 82.9893 349.226 82.8572C349.753 82.7251 350.016 82.6921 350.509 82.56C351.233 82.3949 352.022 81.9326 352.516 81.3711C358.173 74.8984 361.002 71.6291 366.66 65.1564C367.12 64.628 367.449 63.7363 367.482 62.9437C367.482 62.3823 367.482 62.1181 367.482 61.5567C367.581 61.4246 367.647 61.3916 367.745 61.2595C375.113 67.6992 378.699 71.1007 385.54 78.399C385.047 79.5548 384.784 80.1162 384.258 81.2391C384.093 81.0739 384.027 81.0079 383.863 80.8428C383.863 80.7767 383.896 80.7437 383.929 80.7107C384.488 79.2246 383.929 77.2762 382.416 75.7571C379.093 72.3226 377.383 70.6714 373.929 67.435C370.64 71.0016 368.962 72.8179 365.673 76.3845C368.337 78.8613 369.653 80.1493 372.219 82.7582C373.14 83.6828 374.192 83.8149 374.883 83.1544C375.048 83.3196 375.146 83.4186 375.311 83.5838C374.258 84.6405 373.732 85.1359 372.646 86.1927C372.482 86.0275 372.416 85.9285 372.252 85.7633C372.942 85.1029 372.811 84.0131 371.89 83.0884C369.324 80.4795 368.008 79.2246 365.344 76.7478L365.443 76.6157ZM385.606 73.1151C384.225 72.917 383.534 72.8179 382.12 72.6198C382.284 69.6476 382.317 68.1285 382.416 65.1233C379.455 65.3545 377.975 65.4866 375.08 65.7838C374.883 64.4298 374.751 63.7363 374.521 62.3823C377.679 63.241 379.258 63.7033 382.448 64.694C382.646 64.8922 382.745 64.9912 382.942 65.1894C384.06 68.3597 384.587 69.9779 385.606 73.1482V73.1151ZM355.772 92.9296C357.154 94.2505 357.318 95.9347 356.233 97.0245C355.147 98.1143 353.535 97.9822 352.187 96.6613C350.838 95.3733 350.641 93.7552 351.693 92.6323C352.746 91.5095 354.391 91.5756 355.772 92.9296Z" fill="white" style="fill:white;fill-opacity:1;"/>
  <path d="M378.139 113.371C378.139 113.371 377.942 113.504 377.843 113.603C375.442 110.564 374.225 109.078 371.758 106.172C371.89 106.073 371.923 106.007 372.054 105.908C372.581 105.908 372.844 105.875 373.403 105.842C374.159 105.809 375.048 105.512 375.607 105.016C383.139 98.5767 386.889 95.3404 394.422 88.9007C392.678 86.8532 391.823 85.8294 390.047 83.848C388.599 82.2298 386.692 81.5033 385.211 81.9986C385.146 81.9986 385.113 82.0317 385.047 82.0647C384.883 81.8996 384.817 81.8335 384.652 81.6684C385.804 81.2391 386.396 81.0079 387.58 80.5786C395.343 88.9997 399.027 93.491 406 103.035C405.375 104.125 405.046 104.653 404.388 105.743C404.224 105.545 404.158 105.446 404.026 105.215C404.059 105.148 404.092 105.115 404.125 105.082C404.882 103.728 404.487 101.615 403.171 99.8977C401.526 97.7181 400.704 96.6613 398.994 94.5478C391.297 100.756 387.415 103.894 379.718 110.102C379.126 110.564 378.666 111.357 378.501 112.15C378.37 112.645 378.304 112.909 378.139 113.438V113.371Z" fill="white" style="fill:white;fill-opacity:1;"/>
  </g>
  <defs>
  <clipPath id="clip0_3046_1648">
  <rect width="406" height="121" fill="white" style="fill:white;fill-opacity:1;"/>
  </clipPath>
  </defs>
  </svg>
  